# xmcd CD database file
#
# Track frame offsets:
#	150
#	21810
#	42095
#	64525
#
# Disc length: 1124 seconds
#
# Revision: 0
# Processed by: cddbd v1.5PL3 Copyright (c) Steve Scherf et al.
# Submitted via: CDex 1.50beta10
#
DISCID=27046204
DTITLE=Geminiart High Quality - 時代／BIRTH 01
DYEAR=2002
DGENRE=JPop
TTITLE0=時代
TTITLE1=BIRTH 01
TTITLE2=時代(tad-mix)
TTITLE3=BIRTH 01(tad-mix)
EXTD=YEAR: 2002
EXTT0=
EXTT1=
EXTT2=
EXTT3=
PLAYORDER=
